<svg width="64" height="28" viewBox="0 0 64 28" fill="none" xmlns="http://www.w3.org/2000/svg">
<path d="M32.7348 14.2679C32.6708 14.2679 32.6067 14.2679 32.5426 14.2679C32.1583 14.201 31.9661 13.799 32.0942 13.3971C32.6067 11.3876 33.4395 9.44498 34.5926 7.70335L37.4754 3.34928C38.8847 1.20574 41.191 0 43.6253 0C47.7252 0 51.1205 3.48325 51.1205 7.83732V11.9904C51.1205 12.3923 50.8002 12.6603 50.4799 12.6603C50.1596 12.6603 49.8393 12.3254 49.8393 11.9904V7.83732C49.8393 4.28708 47.0846 1.4067 43.6894 1.4067C41.6394 1.4067 39.7816 2.47847 38.6285 4.15311L35.7457 8.50718C34.6567 10.1148 33.8879 11.8565 33.4395 13.7321C33.2473 14.067 32.9911 14.2679 32.7348 14.2679Z" fill="white"/>
<path d="M47.1482 28H35.3609C33.1828 28 31.4531 26.1914 31.4531 23.9139V19.8277C31.4531 19.4258 31.7734 19.1579 32.0937 19.1579C32.4781 19.1579 32.7344 19.4928 32.7344 19.8277V23.9139C32.7344 25.3876 33.8875 26.5933 35.2968 26.5933H47.0841C48.4935 26.5933 49.6466 25.3876 49.6466 23.9139V18.2201C49.6466 17.8182 49.9669 17.5502 50.2872 17.5502C50.6075 17.5502 50.9278 17.8852 50.9278 18.2201V23.9139C51.056 26.1914 49.3263 28 47.1482 28Z" fill="white"/>
<path d="M13.8364 12.6603C13.452 12.6603 13.1957 12.3254 13.1957 11.9904V7.83732C13.1957 3.55024 16.5269 0 20.6909 0C23.1253 0 25.4315 1.27273 26.8408 3.34928L31.5173 10.3828C31.7095 10.7177 31.6455 11.1196 31.3252 11.3206C31.0048 11.5215 30.6205 11.4545 30.4283 11.1196L25.7518 4.08613C24.5987 2.3445 22.7409 1.27273 20.6909 1.27273C17.2957 1.27273 14.541 4.15311 14.541 7.70335V11.9904C14.477 12.3254 14.1567 12.6603 13.8364 12.6603Z" fill="white"/>
<path d="M28.892 28H17.0406C14.8625 28 13.1328 26.1914 13.1328 23.9139V18.2201C13.1328 17.8182 13.4531 17.5502 13.7734 17.5502C14.1578 17.5502 14.414 17.8852 14.414 18.2201V23.9139C14.414 25.3876 15.5672 26.5933 16.9765 26.5933H28.7638C30.1732 26.5933 31.3263 25.3876 31.3263 23.9139C31.3263 23.512 31.6466 23.244 31.9669 23.244C32.3513 23.244 32.6075 23.5789 32.6075 23.9139C32.7997 26.1914 31.006 28 28.892 28Z" fill="white"/>
<path d="M60.3465 24.4497H50.417C50.0326 24.4497 49.7764 24.1148 49.7764 23.7799C49.7764 23.378 50.0967 23.11 50.417 23.11H60.3465C61.6278 23.11 62.7168 21.9713 62.7168 20.6316V10.8516C62.7168 8.44017 61.6278 6.29662 59.7059 4.95691C57.8481 3.68418 55.3497 3.55021 53.1716 4.62198L52.9794 4.68897C52.6591 4.82294 52.2748 4.68897 52.0826 4.35404C51.9545 4.01911 52.0826 3.6172 52.4029 3.41624L52.5951 3.34925C55.1575 2.14351 58.1044 2.27748 60.3465 3.81815C62.6527 5.35882 63.998 7.97127 63.998 10.8516V20.5646C64.0621 22.7081 62.3965 24.4497 60.3465 24.4497Z" fill="white"/>
<path d="M13.6451 24.4498H3.71557C1.6656 24.4498 0 22.7081 0 20.5646V10.8517C0 8.17225 1.08905 5.76077 3.13902 4.2201C5.31711 2.47847 8.39206 2.07656 11.0826 3.21531L11.8514 3.55024C12.1717 3.68421 12.3639 4.08613 12.2358 4.42105C12.1076 4.75598 11.7233 4.95694 11.403 4.82297L10.6342 4.48804C8.328 3.55024 5.76554 3.88517 3.97182 5.29187C2.30622 6.63158 1.34529 8.57416 1.34529 10.8517V20.5646C1.34529 21.9043 2.43434 23.0431 3.71557 23.0431H13.6451C14.0295 23.0431 14.2857 23.378 14.2857 23.7129C14.2857 24.1818 14.0295 24.4498 13.6451 24.4498Z" fill="white"/>
<path d="M43.0501 20.8995H39.4627C38.3096 20.8995 37.3486 19.8948 37.3486 18.689V14.6029C37.3486 13.3972 38.3096 12.3924 39.4627 12.3924H43.0501C44.2032 12.3924 45.1641 13.3972 45.1641 14.6029V18.689C45.2282 19.8948 44.2673 20.8995 43.0501 20.8995ZM39.4627 13.7321C39.0142 13.7321 38.6299 14.134 38.6299 14.6029V18.689C38.6299 19.1579 39.0142 19.5598 39.4627 19.5598H43.0501C43.4985 19.5598 43.8829 19.1579 43.8829 18.689V14.6029C43.8829 14.134 43.4985 13.7321 43.0501 13.7321H39.4627Z" fill="white"/>
<path d="M58.3601 17.5502H55.4773C55.0929 17.5502 54.8367 17.2153 54.8367 16.8804C54.8367 16.4785 55.157 16.2105 55.4773 16.2105H58.3601C58.6163 16.2105 58.8726 15.9426 58.8726 15.6747V12.4593C58.8726 12.1914 58.6163 11.9235 58.3601 11.9235H55.4773C55.2211 11.9235 54.9648 12.1914 54.9648 12.4593V14C54.9648 14.4019 54.6445 14.6699 54.3242 14.6699C54.0039 14.6699 53.6836 14.3349 53.6836 14V12.3924C53.6836 11.3206 54.5164 10.4498 55.5414 10.4498H58.4241C59.4491 10.4498 60.2819 11.3206 60.2819 12.3924V15.6077C60.1538 16.6794 59.321 17.5502 58.3601 17.5502Z" fill="white"/>
<path d="M8.5843 17.5502H5.70153C4.67655 17.5502 3.84375 16.6794 3.84375 15.6077V12.3924C3.84375 11.3206 4.67655 10.4498 5.70153 10.4498H8.5843C9.60929 10.4498 10.4421 11.3206 10.4421 12.3924V14C10.4421 14.4019 10.1218 14.6699 9.80147 14.6699C9.4171 14.6699 9.16086 14.3349 9.16086 14V12.3924C9.16086 12.1244 8.90461 11.8565 8.64837 11.8565H5.70153C5.44529 11.8565 5.18904 12.1244 5.18904 12.3924V15.6077C5.18904 15.8756 5.44529 16.1436 5.70153 16.1436H8.5843C8.96867 16.1436 9.22492 16.4785 9.22492 16.8134C9.22492 17.2153 8.96867 17.5502 8.5843 17.5502Z" fill="white"/>
<path d="M24.6634 20.8995H21.0759C19.9228 20.8995 18.9619 19.8948 18.9619 18.689V14.6029C18.9619 13.3972 19.9228 12.3924 21.0759 12.3924H24.6634C25.8165 12.3924 26.7774 13.3972 26.7774 14.6029V18.689C26.7774 19.8948 25.8165 20.8995 24.6634 20.8995ZM21.0119 13.7321C20.5635 13.7321 20.1791 14.134 20.1791 14.6029V18.689C20.1791 19.1579 20.5635 19.5598 21.0119 19.5598H24.5993C25.0478 19.5598 25.4321 19.1579 25.4321 18.689V14.6029C25.4321 14.134 25.0478 13.7321 24.5993 13.7321H21.0119Z" fill="white"/>
<path d="M37.9881 17.3493H26.1367C25.7523 17.3493 25.4961 17.0144 25.4961 16.6794C25.4961 16.2775 25.8164 16.0096 26.1367 16.0096H37.9881C38.3725 16.0096 38.6287 16.3445 38.6287 16.6794C38.6287 17.0144 38.3725 17.3493 37.9881 17.3493Z" fill="white"/>
<path d="M44.5875 17.3493C44.2672 17.3493 44.0109 17.1483 43.9468 16.8134C43.8828 16.4115 44.075 16.0766 44.3953 15.9426L54.1326 13.3302C54.4529 13.2632 54.8373 13.4641 54.9654 13.7991C55.0295 14.201 54.8373 14.5359 54.517 14.6699L44.7796 17.2823C44.6515 17.2823 44.5875 17.3493 44.5875 17.3493Z" fill="white"/>
<path d="M19.5386 17.3493C19.4745 17.3493 19.4105 17.3493 19.3464 17.3493L9.60905 14.6699C9.22468 14.6029 9.0325 14.201 9.16062 13.7991C9.22468 13.3971 9.60905 13.1962 9.99342 13.3302L19.7948 15.9426C20.1792 16.0096 20.3714 16.4115 20.2433 16.8134C20.1151 17.0813 19.8589 17.3493 19.5386 17.3493Z" fill="white"/>
</svg>
