<svg width="44" height="60" viewBox="0 0 44 60" fill="none" xmlns="http://www.w3.org/2000/svg">
<path d="M39.64 27.0973C36.6462 25.87 31.5325 25.3018 27.5637 25.0373V22.3682C30.8206 20.3264 33.0039 16.6346 33.0039 12.42C33.0039 6.00456 27.9509 0.786377 21.7408 0.786377C15.5306 0.786377 10.4794 6.00456 10.4794 12.42C10.4794 16.6746 12.7084 20.3873 16.0155 22.4146V25.0546C16.0155 25.0582 16.0172 25.06 16.0172 25.0636C12.1241 25.3373 7.27357 25.9037 4.38277 27.0882C3.39629 27.4591 0.391968 28.59 0.391968 31.0318C0.391968 31.5855 0.651568 33.3973 3.99117 33.3973C4.61685 33.3973 5.27509 33.3282 5.83565 33.2109C6.24485 33.1555 6.82213 33.0282 7.62117 32.8509C9.47533 32.4409 12.4233 31.7873 16.2152 31.4127V32.9518C16.2152 32.9873 16.2997 36.3482 14.7817 37.9573C12.198 40.6973 10.7751 44.5691 10.7751 48.8573C10.7751 53.6136 13.7037 59.1791 21.988 59.2146H22.0382H22.0417C30.297 59.1791 33.2256 53.6146 33.2256 48.8573C33.2256 44.5691 31.8027 40.6982 29.219 37.9573C27.7028 36.3482 27.7855 32.9873 27.7872 32.9236V31.4127C31.5774 31.7873 34.5245 32.4391 36.3796 32.8509C37.1786 33.0282 37.7576 33.1564 38.107 33.2009C38.7256 33.3291 39.3839 33.3982 40.0113 33.3982C40.6317 33.3982 41.5276 33.3273 42.258 32.9918C43.4336 32.4518 43.6088 31.5327 43.6088 31.0337C43.6088 28.5882 40.6044 27.4591 39.64 27.0973ZM12.2394 12.42C12.2394 7.0082 16.5021 2.60456 21.7408 2.60456C26.9812 2.60456 31.2439 7.0082 31.2439 12.42C31.2439 15.6055 29.7523 18.4218 27.4678 20.2127C27.136 18.81 25.919 17.7627 24.46 17.7627H19.1219C17.6364 17.7627 16.3939 18.8455 16.0903 20.2873C13.7592 18.4982 12.2394 15.6446 12.2394 12.42ZM25.8037 20.9691V25.0546C25.8037 25.8218 25.2 26.4446 24.46 26.4446H19.1219C18.3792 26.4446 17.7764 25.8209 17.7764 25.0546V20.9691C17.7764 20.2037 18.38 19.5809 19.1219 19.5809H24.46C25.2009 19.5809 25.8037 20.2046 25.8037 20.9691ZM26.029 32.8909C26.022 33.0618 25.9155 37.0564 27.9571 39.2246C29.5569 40.9236 31.4648 43.9727 31.4648 48.8573C31.4648 50.2764 31.0107 57.3573 22.0338 57.3964L22.0373 58.3055L21.9652 57.3964C12.99 57.3573 12.5342 50.2764 12.5342 48.8573C12.5342 43.9709 14.442 40.9218 16.0419 39.2246C18.0852 37.0582 17.977 33.0618 17.9717 32.9227V31.2664C19.238 31.1791 20.5809 31.1264 21.9986 31.1246C23.4163 31.1264 24.7592 31.18 26.0255 31.2682L26.029 32.8909ZM41.5425 31.3282C41.194 31.49 40.6484 31.5782 40.0113 31.5782C39.5062 31.5782 38.9527 31.5209 38.3921 31.4073C38.0551 31.3609 37.4796 31.2337 36.7474 31.0718C33.9701 30.4564 28.8001 29.3091 22.0004 29.3055C15.2006 29.3091 10.0288 30.4564 7.25157 31.0718C6.52117 31.2337 5.94565 31.3609 5.54965 31.4164C5.04981 31.5209 4.49629 31.5782 3.99117 31.5782C2.85509 31.5782 2.15197 31.2936 2.15197 31.0309C2.15197 30.5946 2.51981 29.7227 5.00845 28.7864C7.81213 27.6391 12.7014 27.1009 16.5479 26.8491C17.1067 27.7018 18.0518 28.2627 19.121 28.2627H24.4591C25.5406 28.2627 26.491 27.6891 27.0454 26.8227C31.3196 27.0927 36.2819 27.6764 39.0152 28.7955C41.48 29.7227 41.8479 30.5946 41.8479 31.0309C41.8488 31.0827 41.8488 31.1882 41.5425 31.3282Z" fill="white"/>
</svg>
