<svg width="56" height="46" viewBox="0 0 56 46" fill="none" xmlns="http://www.w3.org/2000/svg">
<path d="M27.1472 7.90038C26.979 7.90038 26.7548 7.7893 26.6427 7.62268L22.9989 1.68003C22.8308 1.40234 22.9429 1.0691 23.1671 0.902488C23.4474 0.735872 23.7837 0.84695 23.9519 1.0691L27.5957 7.01176C27.7638 7.28945 27.6517 7.62268 27.4275 7.7893C27.3154 7.90038 27.2593 7.90038 27.1472 7.90038Z" fill="white"/>
<path d="M24.402 9.51101C24.2338 9.51101 24.1217 9.45547 24.0096 9.34439L20.59 6.01206C20.3658 5.78991 20.3658 5.45667 20.59 5.23452C20.8143 5.01236 21.1506 5.01236 21.3749 5.23452L24.7944 8.56685C25.0186 8.789 25.0186 9.12223 24.7944 9.34439C24.6822 9.45547 24.5701 9.51101 24.402 9.51101Z" fill="white"/>
<path d="M29.7258 6.28974C29.5016 6.28974 29.2774 6.12313 29.1652 5.90097L27.7077 1.34679C27.5956 1.0691 27.7638 0.735863 28.1002 0.624785C28.3804 0.513707 28.7168 0.680324 28.8289 1.01356L30.2864 5.56774C30.3985 5.84543 30.2303 6.17866 29.894 6.28974C29.8379 6.28974 29.7819 6.28974 29.7258 6.28974Z" fill="white"/>
<path d="M26.1382 46C25.97 46 25.8019 46 25.6337 45.9445C24.7368 45.7779 24.0641 45.1114 23.8398 44.2228C23.2793 42.2234 22.3824 39.2243 21.2051 36.1141C20.5885 34.5035 19.131 33.8925 17.9538 33.8925C16.8327 33.8925 15.3752 34.4479 14.7025 36.1141C13.4692 39.2243 12.5723 42.2234 12.0678 44.2228C11.8436 45.0558 11.1709 45.7223 10.2739 45.8889C9.37702 46.0555 8.4801 45.7779 7.91953 45.1114C3.54705 39.8907 3.09859 34.2258 3.2107 31.3378C3.26676 30.5602 2.98647 29.8382 2.53801 29.2828C1.58504 28.1721 0.85629 26.617 0.351772 24.6731C-0.769377 20.4522 0.85629 16.0091 4.27579 13.5654C6.01358 12.3435 8.14376 11.677 10.2739 11.677C13.245 11.677 15.9918 12.8989 18.0099 15.0649C19.9719 12.8989 22.7748 11.677 25.7458 11.677C26.6988 11.677 27.7078 11.7881 28.6047 12.0658C28.885 12.1769 29.1092 12.4546 28.9971 12.7878C28.885 13.0655 28.6047 13.2877 28.2684 13.1766C27.4275 12.9544 26.5867 12.8433 25.6897 12.8433C22.8308 12.8433 20.1961 14.1207 18.4023 16.3423L17.9538 16.8977L17.5054 16.3423C15.7115 14.1207 13.0768 12.8433 10.2179 12.8433C8.31193 12.8433 6.46204 13.3987 4.83637 14.5095C1.75321 16.6755 0.351772 20.6188 1.36081 24.3954C1.69715 25.6173 2.25773 27.339 3.32282 28.5608C3.99551 29.3384 4.33185 30.3381 4.27579 31.3933C4.16368 34.1147 4.61214 39.502 8.76039 44.4449C9.04068 44.8337 9.5452 44.9448 9.99366 44.8892C10.4421 44.7782 10.7785 44.4449 10.9466 44.0006C11.5072 42.0012 12.4041 38.9466 13.6374 35.7809C14.3101 34.0036 15.9918 32.8373 17.8978 32.8373C19.8598 32.8373 21.4854 33.9481 22.1581 35.7809C23.3914 38.9466 24.2883 42.0012 24.8489 44.0006C24.961 44.4449 25.2973 44.7782 25.8019 44.8892C26.2503 45.0003 26.6988 44.8337 27.0351 44.5005C31.2394 39.502 31.6318 34.1702 31.5758 31.3933C31.5197 30.3381 31.8561 29.3939 32.5288 28.6164C33.5938 27.3945 34.2105 25.6728 34.4908 24.3954C34.9953 22.3405 34.8832 20.1745 34.0423 18.2861C33.9302 18.0085 34.0423 17.6752 34.3226 17.5641C34.6029 17.4531 34.9392 17.5641 35.0513 17.8418C35.9483 19.9523 36.1164 22.396 35.5559 24.6731C35.0513 26.617 34.3226 28.2276 33.3696 29.3384C32.9212 29.8938 32.6409 30.6158 32.6969 31.3378C32.809 34.2258 32.3606 39.8907 27.932 45.1669C27.4836 45.7223 26.8109 46 26.1382 46Z" fill="white"/>
<path d="M19.7471 19.6746C19.5229 19.6746 19.2987 19.508 19.1865 19.2859C18.626 17.8418 17.5048 16.3423 17.4488 16.2868C17.2806 16.0646 17.2806 15.6758 17.5609 15.5092C17.7851 15.3426 18.1775 15.3426 18.3457 15.6203C18.4017 15.6758 19.635 17.2865 20.2516 18.8971C20.3637 19.1748 20.1956 19.508 19.9153 19.6191C19.9153 19.6191 19.8032 19.6746 19.7471 19.6746Z" fill="white"/>
<path d="M37.2375 15.2315C37.0693 15.2315 36.9572 15.176 36.8451 15.0649L31.4636 9.73317C31.2394 9.51102 31.2394 9.23332 31.4075 9.01117L37.2936 1.1802L37.3496 1.12466C38.8632 -0.374887 41.3297 -0.374887 42.8993 1.12466L45.534 3.73498C47.0476 5.23453 47.0476 7.67824 45.534 9.23332L45.478 9.28886L37.5739 15.1204C37.4617 15.176 37.3496 15.2315 37.2375 15.2315ZM32.5847 9.28886L37.2936 13.9541L44.7492 8.40024C45.8143 7.345 45.8143 5.6233 44.7492 4.56806L42.0585 1.9022C40.9934 0.846966 39.2556 0.846966 38.1905 1.9022L32.5847 9.28886Z" fill="white"/>
<path d="M29.1087 17.9529C28.9405 17.9529 28.8284 17.8974 28.7163 17.7863C28.492 17.5641 28.492 17.2309 28.7163 17.0087L31.407 14.3429C31.6313 14.1207 31.9676 14.1207 32.1918 14.3429C32.4161 14.565 32.4161 14.8983 32.1918 15.1204L29.5011 17.7863C29.389 17.8974 29.2208 17.9529 29.1087 17.9529Z" fill="white"/>
<path d="M55.4568 17.342C55.3447 17.342 55.2326 17.342 55.1766 17.2309C51.701 15.1204 48.4497 12.6212 45.4786 9.89978C44.9741 9.45546 44.6938 9.17777 44.6938 9.17777C44.4696 8.95562 44.4696 8.62238 44.6938 8.40023C44.918 8.17807 45.2544 8.17807 45.4786 8.40023C45.4786 8.40023 45.7589 8.67792 46.2074 9.06669C49.1223 11.7326 52.3176 14.1763 55.7371 16.2312C56.0174 16.3978 56.0735 16.731 55.9053 17.0087C55.8492 17.2309 55.625 17.342 55.4568 17.342Z" fill="white"/>
<path d="M49.4016 23.7845C49.2334 23.7845 49.1213 23.7289 49.0092 23.6179L38.8628 13.5653C38.6385 13.3432 38.6385 13.01 38.8628 12.7878C39.087 12.5656 39.4233 12.5656 39.6476 12.7878L49.794 22.8403C50.0182 23.0625 50.0182 23.3957 49.794 23.6179C49.6818 23.7289 49.5697 23.7845 49.4016 23.7845Z" fill="white"/>
<path d="M33.1457 16.2312C32.7533 16.2312 32.3609 16.0646 32.0806 15.7869L30.6792 14.3984C30.3989 14.1207 30.2307 13.7875 30.2307 13.3432C30.2307 12.9544 30.3989 12.5657 30.6792 12.288L32.7533 10.233C32.9775 10.0109 33.3139 10.0109 33.5381 10.233C33.7623 10.4552 33.7623 10.7884 33.5381 11.0106L31.464 13.0655C31.4079 13.121 31.3519 13.2321 31.3519 13.3432C31.3519 13.4543 31.4079 13.5653 31.464 13.6209L32.8654 15.0094C33.0336 15.176 33.2578 15.176 33.426 15.0094L35.5001 12.9544C35.7243 12.7323 36.0607 12.7323 36.2849 12.9544C36.5092 13.1766 36.5092 13.5098 36.2849 13.732L34.2108 15.7869C33.9305 16.1201 33.5381 16.2312 33.1457 16.2312Z" fill="white"/>
<path d="M29.109 21.6185C26.7546 21.6185 24.8486 19.7302 24.8486 17.3975C24.8486 17.0643 25.1289 16.8421 25.4092 16.8421C25.7456 16.8421 25.9698 17.1198 25.9698 17.3975C25.9698 19.1192 27.3712 20.5077 29.109 20.5077C29.4453 20.5077 29.6696 20.7854 29.6696 21.0631C29.6696 21.3408 29.3893 21.6185 29.109 21.6185Z" fill="white"/>
<path d="M30.2635 18.8668C28.7138 18.8668 27.4594 17.6391 27.4594 16.1227C27.4594 15.9061 27.6438 15.7616 27.8283 15.7616C28.0497 15.7616 28.1973 15.9422 28.1973 16.1227C28.1973 17.242 29.1197 18.1446 30.2635 18.1446C30.4848 18.1446 30.6324 18.3252 30.6324 18.5057C30.6324 18.6862 30.4479 18.8668 30.2635 18.8668Z" fill="white"/>
</svg>
