<svg width="64" height="44" viewBox="0 0 64 44" fill="none" xmlns="http://www.w3.org/2000/svg">
<path d="M39.4557 42.7429C38.466 42.7429 37.6083 42.3238 36.8825 41.6254L16.7588 20.254C16.4949 19.9746 16.4949 19.5556 16.7588 19.346C17.0227 19.0667 17.4186 19.0667 17.6165 19.346L37.8062 40.7175C38.2681 41.2063 38.8619 41.4857 39.4557 41.4857C40.0495 41.4857 40.7093 41.2063 41.1052 40.7175L43.4145 38.273C43.8763 37.7841 44.1402 37.1556 44.1402 36.527C44.1402 35.8286 43.8763 35.2 43.4145 34.781L23.2908 13.3397C23.0268 13.0603 23.0268 12.6413 23.2908 12.4317C23.5547 12.1524 23.9505 12.1524 24.1485 12.4317L44.3382 33.8032C44.998 34.5016 45.3938 35.4794 45.3938 36.527C45.3938 37.5746 44.998 38.4825 44.3382 39.2508L42.0289 41.6952C41.3031 42.3238 40.3794 42.7429 39.4557 42.7429Z" fill="white"/>
<path d="M17.2206 20.4635C17.1546 20.4635 17.1546 20.4635 17.0887 20.4635C16.8907 20.3937 16.6928 20.254 16.6268 20.0444L14.7134 15.0159C14.6474 14.8063 14.6474 14.527 14.8454 14.3175L18.4742 10.4762C18.6722 10.2667 18.9361 10.2667 19.134 10.3365L23.8845 12.3619C24.2144 12.5016 24.3464 12.8508 24.2144 13.2C24.0825 13.5492 23.7526 13.6889 23.4227 13.5492L19.134 11.6635L16.033 14.946L17.4186 18.7175L19.9918 15.9937C20.2557 15.7143 20.6516 15.7143 20.8495 15.9937C21.1134 16.273 21.1134 16.6921 20.8495 16.9016L17.6165 20.3238C17.5505 20.3936 17.3526 20.4635 17.2206 20.4635Z" fill="white"/>
<path d="M16.9521 13.2698C16.7953 13.2698 16.5602 13.1807 16.4034 13.0024L11.8567 7.83108C10.2889 6.04787 7.93712 5.33459 5.82056 6.04787L0.960294 7.65276C0.568337 7.74192 0.176381 7.5636 0.0195978 7.11779C-0.0587935 6.67199 0.0979892 6.22619 0.489946 6.04787L5.50699 4.53215C8.1723 3.64055 11.0728 4.53215 13.0326 6.76115L17.5793 11.9324C17.8928 12.2891 17.8928 12.824 17.5793 13.0915C17.3441 13.2698 17.1089 13.2698 16.9521 13.2698Z" fill="white"/>
<path d="M24.4783 22.9079C23.3567 22.9079 22.499 22 22.499 20.8127C22.499 19.6254 23.3567 18.7175 24.4783 18.7175C25.6 18.7175 26.4577 19.6254 26.4577 20.8127C26.4577 21.9302 25.534 22.9079 24.4783 22.9079ZM24.4783 19.9746C24.0825 19.9746 23.7526 20.3238 23.7526 20.7429C23.7526 21.1619 24.0825 21.5111 24.4783 21.5111C24.8742 21.5111 25.2041 21.1619 25.2041 20.7429C25.2041 20.3238 24.8742 19.9746 24.4783 19.9746Z" fill="white"/>
<path d="M45.7897 25.6317C45.1299 25.6317 44.5361 25.4921 43.9422 25.2127C41.6989 24.1651 40.6433 21.7206 41.1051 19.0667C41.567 16.3429 43.9422 12.9905 49.0227 12.7111C49.3526 12.7111 49.6825 12.9905 49.6825 13.3397C49.6825 13.6889 49.4185 14.0381 49.0886 14.0381C44.734 14.2476 42.7546 17.0413 42.3587 19.346C41.9629 21.4413 42.8206 23.2571 44.4701 24.0952C45.9216 24.7936 47.6371 24.3048 48.9567 22.7682C51.9257 19.346 51.266 14.0381 49.4185 10.546C47.3072 6.56508 43.6123 3.84127 40.6433 1.95555C40.3794 1.74603 40.2474 1.39682 40.4453 1.04762C40.6433 0.768253 40.9732 0.628571 41.3031 0.838095C44.4041 2.86349 48.2309 5.72698 50.5402 9.91746C53.5093 15.5048 52.3216 20.8127 49.8804 23.6762C48.6268 24.9333 47.2412 25.6317 45.7897 25.6317Z" fill="white"/>
<path d="M50.9361 44.2095C47.7691 44.2095 44.6021 42.9524 42.2268 40.3682C41.9629 40.0889 41.9629 39.6698 42.2268 39.4603C42.4907 39.2508 42.8866 39.1809 43.0845 39.4603C47.3072 43.9302 54.2351 44.0698 58.4577 39.6698C59.2495 38.8317 59.9093 37.9936 60.4371 37.0857C63.2083 32.2667 63.4722 26.5397 61.2289 21.7206C59.1835 17.3905 55.4227 14.527 51.134 14.0381C50.8041 13.9683 50.5402 13.6889 50.6062 13.3397C50.6722 12.9905 50.9361 12.7111 51.266 12.781C56.0165 13.3397 60.1732 16.4825 62.3505 21.1619C64.7918 26.4 64.4619 32.546 61.4928 37.7841C60.899 38.8317 60.1732 39.7397 59.3155 40.6476C57.0722 43.0222 53.9711 44.2095 50.9361 44.2095Z" fill="white"/>
<path d="M29.8887 33.9428C29.7567 33.9428 29.5588 33.873 29.4268 33.7333C29.1629 33.454 29.1629 33.0349 29.4268 32.8254L35.9588 25.9111C36.2227 25.6317 36.6186 25.6317 36.8165 25.9111C37.0804 26.1905 37.0804 26.6095 36.8165 26.819L30.3505 33.7333C30.2186 33.873 30.0866 33.9428 29.8887 33.9428Z" fill="white"/>
</svg>
