<svg height="512" viewBox="0 0 512 512" width="512" xmlns="http://www.w3.org/2000/svg"><g id="BULINE"><circle cx="256" cy="256" fill="#1fb7a2" r="256"/></g><g id="Icons"><circle cx="238.97" cy="236.59" fill="#39eac8" r="173.25"/><path d="m393.04 180.59h25v172.79h-25z" fill="#fff"/><path d="m323.12 13.99h25v172.79h-25z" fill="#fff" transform="matrix(.707 -.707 .707 .707 27.32 266.72)"/><path d="m244.42 318.97h22.6v35.52h-22.6z" fill="#afafaf"/><path d="m121.53 199.18s5.22-4 14.85-5a40.52 40.52 0 0 1 35.26 14.86l42.49 51.72a18.91 18.91 0 0 0 14.6 6.91h107.63a65.33 65.33 0 0 1 31.22 7.93l89 48.33a36.48 36.48 0 0 1 15.65 47.49h-12.71l-119.25-54.67-141.66-4.84-82.94-107.76z" fill="#eb3c65"/><path d="m472.25 370.76h-12.73l-119.25-54.71-141.66-4.84-82.94-107.76 5.86-5a26.84 26.84 0 0 1 8.41-3.75l51 66.22a61.6 61.6 0 0 0 46.74 24l94.57 3.23a90.17 90.17 0 0 1 34.48 8.15l96.77 44.4a30.61 30.61 0 0 0 12.74 2.78h6.05c.28-.59.53-1.18.77-1.79a36.31 36.31 0 0 1 -.81 29.07z" fill="#c13459"/><path d="m86.11 94.57h22.24a21.34 21.34 0 0 1 21.34 21.34v36.91a43.59 43.59 0 0 1 -43.59 43.59 0 0 0 0 1 0 0v-101.84a0 0 0 0 1 .01 0z" fill="#eb3c65" transform="matrix(.794 -.608 .608 .794 -66.19 95.48)"/><path d="m134.8 182.48a43.52 43.52 0 0 1 -13.26 16.7l-61.88-80.89 17.67-13.53a21.33 21.33 0 0 1 26 0 22.19 22.19 0 0 0 -4.14 31.09z" fill="#c13459"/><path d="m441.22 382.91-98.29-49.69a57.4 57.4 0 0 0 -25.93-6.22h-110.38a32.17 32.17 0 0 1 -25.42-12.45l-126.67-163.27a22.54 22.54 0 0 1 4-31.61l1.33-1 133.2 171.74a32.2 32.2 0 0 0 25.43 12.45h104.32a57.27 57.27 0 0 1 25.9 6.18l123.54 62.46-.76 1.5a22.52 22.52 0 0 1 -30.27 9.91z" fill="#fff"/><path d="m472.25 371.47-.76 1.5a22.53 22.53 0 0 1 -30.27 9.94l-98.29-49.69a57.39 57.39 0 0 0 -25.9-6.17h-110.41a32.18 32.18 0 0 1 -25.42-12.46l-126.67-163.31a22.51 22.51 0 0 1 -3.53-21.06 22.51 22.51 0 0 0 3.53 6.54l126.67 163.3a32.18 32.18 0 0 0 25.42 12.46h110.38a57.39 57.39 0 0 1 25.9 6.17l98.29 49.69a22.5 22.5 0 0 0 22.48-1.23z" fill="#cecece"/><path d="m229.88 354.49h51.66a10.69 10.69 0 0 1 10.69 10.69v41a0 0 0 0 1 0 0h-73a0 0 0 0 1 0 0v-41a10.69 10.69 0 0 1 10.65-10.69z" fill="#fff"/><path d="m292.24 388.39v17.75h-73.05v-41a10.7 10.7 0 0 1 10.69-10.69h14.33v.1a33.8 33.8 0 0 0 33.8 33.8z" fill="#cecece"/><path d="m204.46 406.15h102.54a24.21 24.21 0 0 1 24.21 24.21v6.46a0 0 0 0 1 0 0h-150.96a0 0 0 0 1 0 0v-6.46a24.21 24.21 0 0 1 24.21-24.21z" fill="#cecece"/><path d="m326.73 416.37h-94a24.24 24.24 0 0 0 -23.93 20.45h-28.55v-6.46a24.21 24.21 0 0 1 24.21-24.22h102.54a24.17 24.17 0 0 1 19.73 10.23z" fill="#afafaf"/><rect fill="#fff" height="24.21" rx="12.11" width="191.3" x="160.07" y="436.82"/><path d="m227.16 228.37h23.61v39.35h-23.61z" fill="#cecece"/><path d="m227.16 228.37h23.61v13.92h-23.61z" fill="#afafaf"/><path d="m211 207.18h92.62a0 0 0 0 1 0 0v8a13.17 13.17 0 0 1 -13.17 13.17h-66.26a13.17 13.17 0 0 1 -13.19-13.15v-8a0 0 0 0 1 0-.02z" fill="#fff"/><path d="m224.19 189.62h66.29a13.17 13.17 0 0 1 13.17 13.17v4.39a0 0 0 0 1 0 0h-92.65a0 0 0 0 1 0 0v-4.39a13.17 13.17 0 0 1 13.19-13.17z" fill="#eb3c65"/><circle cx="399.54" cy="170.31" fill="#3e4fc7" r="25.5"/><circle cx="399.54" cy="170.31" fill="#7e92f2" r="16.17"/><path d="m217.25 27.88h60.49a43 43 0 0 1 43 43 0 0 0 0 1 0 0h-146.49a0 0 0 0 1 0 0 43 43 0 0 1 43-43z" fill="#cecece"/><path d="m320.54 70.88h-146.49a43 43 0 0 1 35.95-42.42l-.22.23c-10.27 11.13-2.16 29.19 13 29.19h95.8a43 43 0 0 1 1.96 13z" fill="#afafaf"/><g fill="#ffca57"><path d="m180.35 80.47c0 7.12 9.16 12.9 20.46 12.9s20.46-5.78 20.46-12.9z"/><path d="m226.21 80.47c0 7.12 9.16 12.9 20.46 12.9s20.46-5.78 20.46-12.9z"/><path d="m273.31 80.47c0 7.12 9.16 12.9 20.46 12.9s20.46-5.78 20.46-12.9z"/></g><rect fill="#7e92f2" height="10.5" rx="5.25" width="158.5" x="168.04" y="70.88"/><g fill="#ffdf9f"><rect height="50" rx="5.9" width="11.8" x="238.97" y="108.09"/><rect height="50" rx="5.9" transform="matrix(.707 -.707 .707 .707 -.34 249.91)" width="11.8" x="295.6" y="100.36"/><rect height="50" rx="5.9" transform="matrix(-.707 -.707 .707 -.707 241.6 350.8)" width="11.8" x="187.55" y="100.36"/></g><path d="m409.31 461a256.05 256.05 0 0 1 -306.62 0z" fill="#3342ae"/></g></svg>