<svg width="44" height="56" viewBox="0 0 44 56" fill="none" xmlns="http://www.w3.org/2000/svg">
<path d="M26.0683 24.9231H25.037C24.6933 24.9231 24.3495 24.6432 24.3495 24.2512C24.3495 23.9152 24.636 23.5793 25.037 23.5793H26.0683C26.7558 23.5793 27.386 23.2433 27.787 22.6274C29.3339 20.0516 31.9693 14.6202 31.8547 7.06091C31.8547 5.21309 30.9381 3.47727 29.4485 2.41337C28.0162 1.40547 26.2402 1.06951 24.5787 1.51746C24.4641 1.57346 24.3495 1.57346 24.1777 1.62945C22.6308 2.18939 20.9693 2.18939 19.4225 1.62945C19.3079 1.57346 19.1933 1.51746 19.0214 1.51746C17.36 1.06951 15.5839 1.34948 14.1516 2.41337C12.6621 3.47727 11.7454 5.21309 11.7454 7.06091C11.6308 14.6762 14.2662 20.1076 15.8131 22.6274C16.1568 23.1873 16.8443 23.5793 17.5318 23.5793H18.5631C18.9068 23.5793 19.2506 23.8592 19.2506 24.2512C19.2506 24.5872 18.9641 24.9231 18.5631 24.9231H17.4173C16.2714 24.9231 15.1829 24.3072 14.5527 23.3553C12.9485 20.6676 10.1985 15.0121 10.3131 7.06091C10.3704 4.82113 11.4589 2.69334 13.2923 1.34948C15.0683 0.0616066 17.2454 -0.330354 19.3079 0.285584C19.4798 0.341579 19.5943 0.397573 19.7662 0.453568C21.0266 0.901523 22.3443 0.901523 23.6047 0.453568C23.7766 0.397573 23.8912 0.341579 24.0631 0.285584C26.1256 -0.27436 28.3599 0.117601 30.0787 1.34948C31.912 2.69334 33.0006 4.82113 33.0579 7.06091C33.1724 14.9561 30.4224 20.6676 28.8183 23.3553C28.3027 24.3072 27.2141 24.9231 26.0683 24.9231Z" fill="white"/>
<path d="M21.7139 30.8025C21.3701 30.8025 21.0264 30.5226 21.0264 30.1306V20.3316C21.0264 19.9956 21.3128 19.6596 21.7139 19.6596C22.0576 19.6596 22.4014 19.9396 22.4014 20.3316V30.1306C22.4014 30.4666 22.1149 30.8025 21.7139 30.8025Z" fill="white"/>
<path d="M27.5003 33.7702C27.1566 33.7702 26.8128 33.4903 26.8128 33.0983V29.9066C26.8128 29.6266 26.5837 29.4587 26.3545 29.4587H24.9795C24.6357 29.4587 24.292 29.1787 24.292 28.7867C24.292 28.4508 24.5785 28.1148 24.9795 28.1148H26.3545C27.3284 28.1148 28.1878 28.8987 28.1878 29.9066V33.0983C28.1878 33.4343 27.9014 33.7702 27.5003 33.7702Z" fill="white"/>
<path d="M21.7135 56C20.7969 56 19.9948 55.608 19.3646 54.8241L16.2135 51.0725C15.6406 50.3445 15.2969 49.4486 15.2969 48.4407V47.5448C15.2969 47.2089 15.5833 46.8729 15.9844 46.8729C16.3281 46.8729 16.6719 47.1529 16.6719 47.5448V48.4407C16.6719 49.1127 16.901 49.7846 17.3021 50.2326L20.4531 53.9842C20.7969 54.4321 21.2552 54.6561 21.7708 54.6561C22.2864 54.6561 22.7448 54.4321 23.0885 53.9842L26.2396 50.2326C26.6406 49.7846 26.8698 49.1127 26.8698 48.4407V42.5613C26.8698 42.2254 27.1562 41.8894 27.5573 41.8894C27.901 41.8894 28.2448 42.1694 28.2448 42.5613V48.4407C28.2448 49.4486 27.901 50.3445 27.3281 51.0725L24.1771 54.8241C23.4896 55.608 22.6302 56 21.7135 56Z" fill="white"/>
<path d="M15.9844 38.7537C15.6406 38.7537 15.2969 38.4738 15.2969 38.0818V29.9066C15.2969 28.9547 16.099 28.1148 17.1302 28.1148H18.276C18.6198 28.1148 18.9635 28.3948 18.9635 28.7867C18.9635 29.1227 18.6771 29.4587 18.276 29.4587H17.1302C16.8437 29.4587 16.6719 29.6826 16.6719 29.9066V38.0818C16.6719 38.4738 16.3281 38.7537 15.9844 38.7537Z" fill="white"/>
<path d="M13.6342 39.7616C13.3477 39.7616 13.1185 39.5936 13.004 39.3696C12.8321 39.0337 13.004 38.6417 13.3477 38.4737L29.5612 31.4744C29.905 31.3065 30.306 31.4744 30.4779 31.8104C30.6498 32.1464 30.4779 32.5383 30.1341 32.7063L13.9206 39.7056C13.806 39.7616 13.7487 39.7616 13.6342 39.7616Z" fill="white"/>
<path d="M13.6342 44.5211C13.3477 44.5211 13.1185 44.3531 13.004 44.1291C12.8321 43.7932 13.004 43.4012 13.3477 43.2332L29.5612 36.2339C29.905 36.0659 30.306 36.2339 30.4779 36.5699C30.6498 36.9059 30.4779 37.2978 30.1341 37.4658L13.9206 44.4651C13.806 44.4651 13.7487 44.5211 13.6342 44.5211Z" fill="white"/>
<path d="M13.6342 49.2247C13.3477 49.2247 13.1185 49.0567 13.004 48.8327C12.8321 48.4967 13.004 48.1048 13.3477 47.9368L29.5612 40.9375C29.905 40.7695 30.306 40.9375 30.4779 41.2735C30.6498 41.6094 30.4779 42.0014 30.1341 42.1694L13.9206 49.1687C13.806 49.2247 13.7487 49.2247 13.6342 49.2247Z" fill="white"/>
<path d="M21.7145 21.0035C19.1364 21.0035 17.0166 18.9317 17.0166 16.412C17.0166 13.8922 19.1364 11.8204 21.7145 11.8204C24.2926 11.8204 26.4124 13.8922 26.4124 16.412C26.4124 18.9317 24.3499 21.0035 21.7145 21.0035ZM21.7145 13.1083C19.8812 13.1083 18.3916 14.5642 18.3916 16.356C18.3916 18.1478 19.8812 19.6036 21.7145 19.6036C23.5478 19.6036 25.0374 18.1478 25.0374 16.356C25.0374 14.5642 23.6051 13.1083 21.7145 13.1083Z" fill="white"/>
<path d="M43.3125 56C42.9687 56 42.625 55.72 42.625 55.3281V39.3697C42.625 33.8822 38.0417 29.4587 32.4844 29.4587C32.1406 29.4587 31.7969 29.1787 31.7969 28.7867C31.7969 28.4508 32.0833 28.1148 32.4844 28.1148C38.8437 28.1148 44 33.1543 44 39.3697V55.3281C44 55.72 43.6562 56 43.3125 56Z" fill="white"/>
<path d="M0.687499 56C0.343749 56 0 55.72 0 55.3281V39.3697C0 33.1543 5.15624 28.1148 11.5156 28.1148C11.8594 28.1148 12.2031 28.3948 12.2031 28.7867C12.2031 29.1227 11.9166 29.4587 11.5156 29.4587C5.90103 29.4587 1.375 33.9382 1.375 39.3697V55.3281C1.375 55.72 1.08854 56 0.687499 56Z" fill="white"/>
</svg>
