<svg width="16" height="24" viewBox="0 0 16 24" fill="none" xmlns="http://www.w3.org/2000/svg">
<path d="M7.99877 5.33733C8.81482 5.33733 9.59745 5.656 10.1745 6.22324C10.7515 6.79048 11.0757 7.55982 11.0757 8.36202C11.0757 9.16422 10.7515 9.93356 10.1745 10.5008C9.59745 11.068 8.81482 11.3867 7.99877 11.3867C7.18272 11.3867 6.40009 11.068 5.82306 10.5008C5.24602 9.93356 4.92185 9.16422 4.92185 8.36202C4.92185 7.55982 5.24602 6.79048 5.82306 6.22324C6.40009 5.656 7.18272 5.33733 7.99877 5.33733ZM7.99877 6.54721C7.50914 6.54721 7.03956 6.73841 6.69334 7.07875C6.34712 7.4191 6.15262 7.8807 6.15262 8.36202C6.15262 8.84334 6.34712 9.30495 6.69334 9.64529C7.03956 9.98563 7.50914 10.1768 7.99877 10.1768C8.4884 10.1768 8.95798 9.98563 9.3042 9.64529C9.65042 9.30495 9.84492 8.84334 9.84492 8.36202C9.84492 7.8807 9.65042 7.4191 9.3042 7.07875C8.95798 6.73841 8.4884 6.54721 7.99877 6.54721ZM2.21415 11.8186L7.99877 21.171L13.7834 11.8186C14.4072 10.8096 14.7467 9.65556 14.767 8.47494C14.7873 7.29432 14.4877 6.12966 13.8988 5.10048C13.31 4.07131 12.4532 3.21469 11.4163 2.61855C10.3795 2.02241 9.19994 1.70822 7.99877 1.70822C6.79759 1.70822 5.61805 2.02241 4.5812 2.61855C3.54435 3.21469 2.68754 4.07131 2.0987 5.10048C1.50987 6.12966 1.21022 7.29432 1.2305 8.47494C1.25079 9.65556 1.59029 10.8096 2.21415 11.8186ZM14.8345 12.4478L7.99877 23.5L1.16308 12.4478C0.425996 11.2553 0.0249612 9.89143 0.00112799 8.49624C-0.0227052 7.10105 0.331521 5.72475 1.02746 4.50858C1.72339 3.29241 2.73597 2.28016 3.96129 1.57572C5.1866 0.871272 6.58052 0.5 8 0.5C9.41948 0.5 10.8134 0.871272 12.0387 1.57572C13.264 2.28016 14.2766 3.29241 14.9725 4.50858C15.6685 5.72475 16.0227 7.10105 15.9989 8.49624C15.975 9.89143 15.574 11.2553 14.8369 12.4478H14.8345Z" fill="#75BE43"/>
</svg>
