<svg width="20" height="22" viewBox="0 0 20 22" fill="none" xmlns="http://www.w3.org/2000/svg">
<path d="M18.4211 21.5C19.2916 21.5 20 20.7562 20 19.8421V15.9737C20 15.0596 19.2916 14.3158 18.4211 14.3158C17.1895 14.3158 15.9789 14.1124 14.8211 13.7112C14.5443 13.6194 14.249 13.6083 13.9666 13.6789C13.6843 13.7496 13.4255 13.8994 13.2179 14.1124L11.7021 15.704C9.08222 14.2106 6.93056 11.9521 5.50737 9.20174L7.01053 7.61347C7.44421 7.19126 7.6 6.54911 7.41474 5.93126C7.03341 4.71359 6.84009 3.4397 6.84211 2.15789C6.84211 1.24384 6.13368 0.5 5.26316 0.5H1.57895C0.708421 0.5 0 1.24384 0 2.15789C0 12.8237 8.26316 21.5 18.4211 21.5ZM1.57895 1.60526H5.26316C5.40275 1.60526 5.53662 1.66349 5.63532 1.76713C5.73402 1.87076 5.78947 2.01133 5.78947 2.15789C5.78947 3.56932 6 4.95532 6.41368 6.26947C6.44408 6.36484 6.44763 6.46738 6.42392 6.56481C6.40021 6.66224 6.35024 6.75043 6.28 6.81879L4.22105 8.99174C5.94421 12.5595 8.48947 15.2321 11.9032 17.0568L13.9547 14.9016C14.0247 14.8288 14.1123 14.7775 14.2079 14.7529C14.3036 14.7284 14.4038 14.7316 14.4979 14.7623C15.7568 15.2 17.0768 15.4211 18.4211 15.4211C18.7105 15.4211 18.9474 15.6697 18.9474 15.9737V19.8421C18.9474 20.1461 18.7105 20.3947 18.4211 20.3947C8.84421 20.3947 1.05263 12.2136 1.05263 2.15789C1.05263 2.01133 1.10808 1.87076 1.20679 1.76713C1.30549 1.66349 1.43936 1.60526 1.57895 1.60526Z" fill="#75BE43"/>
</svg>
