<svg width="52" height="54" viewBox="0 0 52 54" fill="none" xmlns="http://www.w3.org/2000/svg">
<path d="M28.7827 21.2547C27.0012 21.2547 25.498 19.8521 25.498 18.0719V13.8641C25.498 11.005 26.3888 8.25375 28.059 5.88012L30.3972 2.58941C31.5664 0.971029 33.4592 0 35.4635 0C38.8595 0 41.5875 2.64336 41.5875 5.93406V12.0839C41.5875 12.4076 41.3091 12.6773 40.9751 12.6773C40.641 12.6773 40.3627 12.4076 40.3627 12.0839V5.98801C40.3627 3.3986 38.1914 1.24076 35.4635 1.24076C33.849 1.24076 32.3458 1.996 31.455 3.29071L29.1168 6.58142C27.6136 8.73926 26.7785 11.2208 26.7785 13.8641V18.0719C26.7785 19.1508 27.6693 20.014 28.7827 20.014C29.1168 20.014 29.3951 20.2837 29.3951 20.6074C29.3951 20.985 29.1168 21.2547 28.7827 21.2547Z" fill="white"/>
<path d="M42.0879 35.1728H40.0837C39.7497 35.1728 39.4713 34.9031 39.4713 34.5794C39.4713 34.2557 39.7497 33.986 40.0837 33.986H42.0879C43.2014 33.986 44.0921 33.1229 44.0921 32.0439V19.96C44.0921 17.3706 41.9209 15.2128 39.1929 15.2128C37.5784 15.2128 36.0753 15.968 35.1845 17.2627L32.9019 20.5534C31.3988 22.7113 30.5637 25.1928 30.5637 27.8362V32.0439C30.5637 33.1229 31.4544 33.986 32.5679 33.986H34.6278C34.9618 33.986 35.2402 34.2557 35.2402 34.5794C35.2402 34.9031 34.9618 35.1728 34.6278 35.1728H32.5679C30.7864 35.1728 29.2832 33.7702 29.2832 31.99V27.7822C29.2832 24.9231 30.174 22.1718 31.8441 19.7982L34.1824 16.5075C35.3515 14.8891 37.2444 13.9181 39.2486 13.9181C42.6446 13.9181 45.3726 16.5614 45.3726 19.8521V31.9361C45.3726 33.7702 43.8694 35.1728 42.0879 35.1728Z" fill="white"/>
<path d="M23.4951 21.2555H13.9751C12.1936 21.2555 10.6904 19.8529 10.6904 18.0726V5.98873C10.6904 2.69802 13.4184 0.0546646 16.8144 0.0546646C18.8186 0.0546646 20.7115 1.02569 21.8806 2.64407L24.2189 5.93478C25.388 7.60711 26.3901 10.4663 26.7798 12.4083C26.8355 12.732 26.6128 13.0557 26.2788 13.1096C25.9447 13.1636 25.6107 12.9478 25.555 12.6241C25.221 10.8439 24.2746 8.14657 23.2168 6.63608L20.8785 3.34537C19.9878 2.05067 18.4846 1.29542 16.8701 1.29542C14.1978 1.29542 11.9709 3.39932 11.9709 6.04268V18.1266C11.9709 19.2055 12.8617 20.0686 13.9751 20.0686H23.4951C24.6086 20.0686 25.4994 19.2055 25.4994 18.1266C25.4994 17.8029 25.7777 17.5332 26.1118 17.5332C26.4458 17.5332 26.7242 17.8029 26.7242 18.1266C26.7798 19.8529 25.2767 21.2555 23.4951 21.2555Z" fill="white"/>
<path d="M48.9919 18.6114H47.0433C46.7093 18.6114 46.4309 18.3417 46.4309 18.018C46.4309 17.6943 46.7093 17.4246 47.0433 17.4246H48.9919C49.994 17.4246 50.8291 16.6154 50.8291 15.6443V8.30769C50.8291 6.6893 50.1053 5.28671 48.8249 4.26173C47.4887 3.2907 45.7629 2.91308 44.204 3.2907C43.87 3.34465 43.536 3.18281 43.4246 2.85914C43.3689 2.53546 43.536 2.21178 43.87 2.10389C45.8185 1.67232 47.9341 2.10389 49.5486 3.34465C51.1631 4.58541 51.9982 6.31168 51.9982 8.30769V15.5904C52.0539 17.2627 50.6621 18.6114 48.9919 18.6114Z" fill="white"/>
<path d="M11.1902 18.6114H3.11767C1.39182 18.6114 0 17.2627 0 15.5904V8.30769C0 6.36563 0.83509 4.58541 2.39393 3.3986C3.95276 2.15784 6.06832 1.67233 7.96119 2.04995C8.29523 2.1039 8.51792 2.42757 8.46225 2.75125C8.40658 3.07492 8.07254 3.29071 7.7385 3.23676C6.17967 2.91309 4.50949 3.34465 3.22902 4.31568C2.00422 5.28671 1.28047 6.68931 1.28047 8.30769V15.5904C1.28047 16.5614 2.11556 17.3706 3.11767 17.3706H11.1345C11.4686 17.3706 11.7469 17.6404 11.7469 17.964C11.8026 18.3417 11.5242 18.6114 11.1902 18.6114Z" fill="white"/>
<path d="M33.0145 39.7582C32.8475 39.7582 32.6805 39.7043 32.5691 39.5964C32.3464 39.3806 32.3464 38.949 32.5691 38.7333L36.8559 34.5794V29.1848C36.8559 28.8611 37.1343 28.5914 37.4683 28.5914C37.8024 28.5914 38.0807 28.8611 38.0807 29.1848V34.7952C38.0807 34.957 38.025 35.1189 37.9137 35.2268L33.4042 39.5964C33.3485 39.7043 33.1815 39.7582 33.0145 39.7582Z" fill="white"/>
<path d="M22.7708 54C21.9914 54 21.1563 53.7303 20.5439 53.1369L18.5954 51.2488C17.3706 50.0619 17.3706 48.1199 18.5954 46.9331L27.0576 38.7333C27.2803 38.5175 27.7257 38.5175 27.9484 38.7333C28.1711 38.9491 28.1711 39.3806 27.9484 39.5964L19.4861 47.7962C18.7624 48.4975 18.7624 49.6304 19.4861 50.3856L21.4347 52.2737C22.1584 52.975 23.3275 52.975 24.107 52.2737L32.5692 44.0739C32.7919 43.8581 33.2373 43.8581 33.46 44.0739C33.6827 44.2897 33.6827 44.7213 33.46 44.9371L24.9977 53.1369C24.3853 53.7303 23.5502 54 22.7708 54Z" fill="white"/>
<path d="M32.9593 45.0989C32.9036 45.0989 32.7923 45.0989 32.7366 45.045C32.4026 44.9371 32.2356 44.5594 32.4026 44.2358L33.8501 40.7293L31.3448 38.3556L28.6168 39.4346L30.6767 41.4306C30.8994 41.6463 30.8994 42.0779 30.6767 42.2937C30.454 42.5095 30.0087 42.5095 29.786 42.2937L27.058 39.6503C26.891 39.4885 26.8353 39.2727 26.891 39.1109C26.9467 38.8951 27.058 38.7333 27.2807 38.6793L31.2891 37.1149C31.5118 37.007 31.7902 37.0609 31.9572 37.2767L35.0192 40.2438C35.1862 40.4056 35.2419 40.6753 35.1862 40.8911L33.5717 44.7752C33.4604 44.991 33.2377 45.0989 32.9593 45.0989Z" fill="white"/>
</svg>
