<svg width="62" height="56" viewBox="0 0 62 56" fill="none" xmlns="http://www.w3.org/2000/svg">
<path d="M54.607 23.5399C54.3593 23.5399 54.1116 23.416 53.9877 23.1682C53.8019 22.8584 53.9258 22.4248 54.2973 22.239L60.9857 18.708C61.2954 18.5222 61.7289 18.6461 61.9146 19.0177C62.1004 19.3275 61.9766 19.7611 61.605 19.9469L54.9166 23.4779C54.7928 23.5399 54.6689 23.5399 54.607 23.5399Z" fill="white"/>
<path d="M53.0589 20.5664C52.8731 20.5664 52.6873 20.5045 52.5635 20.3186C52.3157 20.0708 52.3157 19.6372 52.6254 19.3894L56.465 15.9823C56.7127 15.7345 57.1462 15.7345 57.3939 16.0443C57.6417 16.2921 57.6417 16.7257 57.332 16.9735L53.4924 20.3806C53.3685 20.5045 53.2447 20.5664 53.0589 20.5664Z" fill="white"/>
<path d="M56.1545 26.4513C55.8448 26.4513 55.5971 26.2655 55.5352 25.9558C55.4732 25.5841 55.659 25.2124 56.0306 25.1505L60.9849 23.9115C61.3565 23.8496 61.7281 24.0354 61.79 24.4071C61.852 24.7788 61.6662 25.1505 61.2946 25.2124L56.3403 26.4513C56.2783 26.4513 56.2164 26.4513 56.1545 26.4513Z" fill="white"/>
<path d="M7.29318 23.5399C7.16933 23.5399 7.1074 23.5399 6.98354 23.4779L0.357109 19.9469C0.047463 19.7611 -0.0763955 19.3894 0.047463 19.0177C0.233251 18.708 0.604826 18.5841 0.976402 18.708L7.66476 22.239C7.97441 22.4248 8.09826 22.7965 7.97441 23.1682C7.78862 23.416 7.5409 23.5399 7.29318 23.5399Z" fill="white"/>
<path d="M8.84125 20.5664C8.65547 20.5664 8.53161 20.5045 8.40775 20.3806L4.56814 16.9735C4.32042 16.7257 4.25849 16.2921 4.50621 16.0443C4.75392 15.7965 5.18743 15.7345 5.43515 15.9823L9.27476 19.3894C9.52248 19.6372 9.5844 20.0708 9.33669 20.3186C9.21283 20.5044 9.02704 20.5664 8.84125 20.5664Z" fill="white"/>
<path d="M5.74495 26.4513C5.68302 26.4513 5.62109 26.4513 5.55916 26.4513L0.604826 25.2124C0.23325 25.1505 0.0474626 24.7788 0.109392 24.4071C0.171321 24.0354 0.542897 23.8496 0.914472 23.9115L5.86881 25.1505C6.24039 25.2124 6.42617 25.5841 6.36424 25.9558C6.30232 26.2036 6.0546 26.4513 5.74495 26.4513Z" fill="white"/>
<path d="M39.9305 56C39.7447 56 39.5589 56 39.3731 55.938C38.3822 55.6902 37.5772 54.9469 37.3294 54.0177C36.7101 51.7876 35.7193 48.3186 34.3568 44.7876C33.6756 42.9911 32.0654 42.3097 30.7649 42.3097C29.4644 42.3097 27.8543 42.9292 27.173 44.7876C25.8106 48.3186 24.8197 51.7256 24.2004 54.0177C23.9527 55.0088 23.1476 55.7522 22.1568 55.938C21.1659 56.1239 20.175 55.8141 19.4938 55.0088C14.5395 49.0619 14.044 42.6194 14.106 39.3363C14.1679 38.469 13.8583 37.6637 13.3628 37.0442C12.31 35.8053 11.443 34.0088 10.8856 31.7787C9.95671 28.2478 10.6999 24.469 12.7435 21.6814C12.9912 21.3717 13.3628 21.3097 13.6725 21.5575C13.9821 21.8053 14.044 22.177 13.7963 22.4867C11.9384 24.9646 11.3192 28.3717 12.1242 31.469C12.4958 32.8318 13.177 34.8141 14.2918 36.177C15.0349 37.0442 15.4065 38.2212 15.4065 39.3982C15.2826 42.4956 15.7781 48.5664 20.4847 54.2035C20.7943 54.5752 21.2898 54.761 21.8471 54.6371C22.3426 54.5133 22.7141 54.1416 22.8999 53.646C23.5192 51.354 24.5101 47.8849 25.9345 44.292C26.7395 42.2478 28.5974 40.9469 30.7649 40.9469C32.9325 40.9469 34.7903 42.2478 35.5954 44.292C36.9579 47.8849 38.0107 51.354 38.6299 53.646C38.7538 54.1416 39.1254 54.5133 39.6827 54.6371C40.1782 54.761 40.6736 54.5752 40.9833 54.2035C45.6899 48.5664 46.1853 42.4956 46.0615 39.3982C45.9995 38.2212 46.3711 37.1062 47.1143 36.2389C48.2909 34.8761 48.9721 32.8938 49.3437 31.469C50.1488 28.3717 49.5295 25.1504 47.7955 22.6725C47.6097 22.3628 47.6716 21.9292 47.9813 21.7433C48.2909 21.5575 48.7244 21.6194 48.9102 21.9292C50.9539 24.7787 51.5732 28.3717 50.7062 31.8407C50.1488 34.0708 49.2818 35.8672 48.229 37.1062C47.7335 37.7256 47.4239 38.531 47.4858 39.3982C47.6097 42.6814 47.0523 49.1239 42.098 55.1327C41.4787 55.6283 40.7355 56 39.9305 56Z" fill="white"/>
<path d="M30.7643 24.8407C26.3673 24.8407 21.9704 23.9115 17.8211 21.9912L14.8485 20.6283V6.44248L22.9612 13.0089L30.7643 0L38.5674 13.0089L46.6801 6.44248V20.5664L43.7075 21.9292C39.5583 23.9115 35.1613 24.8407 30.7643 24.8407ZM16.211 19.7611L18.4404 20.7522C26.3054 24.4071 35.2852 24.4071 43.1502 20.7522L45.3796 19.7611V9.23009L38.1958 14.9912L30.7643 2.60177L23.3328 14.9912L16.211 9.23009V19.7611Z" fill="white"/>
<path d="M19.1834 11.4602C19.0595 11.4602 18.9356 11.3982 18.8118 11.3363C18.5021 11.1504 18.4402 10.7168 18.626 10.4071L21.7844 5.5752L26.0575 9.29201C26.3052 9.5398 26.3671 9.97342 26.1194 10.2212C25.8717 10.469 25.4382 10.5309 25.1905 10.2832L22.0321 7.5575L19.6788 11.0885C19.6169 11.3363 19.3691 11.4602 19.1834 11.4602Z" fill="white"/>
<path d="M42.3461 11.4602C42.0984 11.4602 41.9126 11.3363 41.7888 11.1504L39.4355 7.61945L36.2771 10.3451C36.0293 10.5929 35.5958 10.531 35.3481 10.2832C35.1004 10.0354 35.1623 9.60175 35.4101 9.35396L39.6832 5.63715L42.8416 10.469C43.0273 10.7787 42.9654 11.2124 42.6558 11.3982C42.5938 11.4602 42.47 11.4602 42.3461 11.4602Z" fill="white"/>
</svg>
