<svg width="23" height="24" viewBox="0 0 23 24" fill="none" xmlns="http://www.w3.org/2000/svg">
<path d="M11.5 0.5C13.0102 0.5 14.5056 0.797456 15.9009 1.37539C17.2961 1.95331 18.5639 2.8004 19.6317 3.86827C20.6996 4.93615 21.5467 6.2039 22.1246 7.59914C22.7025 8.99438 23 10.4898 23 12C23 13.5102 22.7025 15.0056 22.1246 16.4009C21.5467 17.7961 20.6996 19.0639 19.6317 20.1317C18.5639 21.1996 17.2961 22.0467 15.9009 22.6246C14.5056 23.2025 13.0102 23.5 11.5 23.5C8.45001 23.5 5.52494 22.2884 3.36827 20.1317C1.2116 17.9751 0 15.05 0 12C0 8.95001 1.2116 6.02494 3.36827 3.86827C5.52494 1.7116 8.45001 0.5 11.5 0.5ZM11.5 2.03333C8.85667 2.03333 6.32161 3.08339 4.4525 4.9525C2.58339 6.82162 1.53333 9.35668 1.53333 12C1.53333 14.6433 2.58339 17.1784 4.4525 19.0475C6.32161 20.9166 8.85667 21.9667 11.5 21.9667C14.1433 21.9667 16.6784 20.9166 18.5475 19.0475C20.4166 17.1784 21.4667 14.6433 21.4667 12C21.4667 9.35668 20.4166 6.82162 18.5475 4.9525C16.6784 3.08339 14.1433 2.03333 11.5 2.03333ZM10.7333 5.1H12.2667V11.7899L16.9403 13.9688L16.2917 15.358L10.7333 12.7667V5.1Z" fill="#75BE43"/>
</svg>
