<svg width="56" height="52" viewBox="0 0 56 52" fill="none" xmlns="http://www.w3.org/2000/svg">
<path d="M27.5493 14.1127C27.3813 14.1127 27.2132 14.0584 27.1012 13.9499L22.4527 9.44465C22.2287 9.22753 22.2287 8.84757 22.4527 8.57617C22.6767 8.35905 23.0688 8.35905 23.3488 8.57617L27.9973 13.0814C28.2213 13.2985 28.2213 13.6785 27.9973 13.9499C27.8853 14.0584 27.7173 14.1127 27.5493 14.1127Z" fill="white"/>
<path d="M29.565 12.0501C29.341 12.0501 29.173 11.9415 29.061 11.7787L26.7087 8.08769C26.5407 7.81629 26.5967 7.43633 26.9327 7.27349C27.2127 7.11065 27.6048 7.16493 27.7728 7.49061L30.1251 11.1816C30.2931 11.453 30.2371 11.833 29.9011 11.9958C29.789 12.0501 29.677 12.0501 29.565 12.0501Z" fill="white"/>
<path d="M25.4772 16.0125C25.3652 16.0125 25.2532 15.9582 25.1412 15.904L21.3328 13.6242C21.0527 13.4614 20.9407 13.0814 21.1087 12.81C21.2767 12.5386 21.6688 12.4301 21.9488 12.5929L25.7573 14.8726C26.0373 15.0355 26.1493 15.4154 25.9813 15.6868C25.9253 15.904 25.7013 16.0125 25.4772 16.0125Z" fill="white"/>
<path d="M46.3668 32.3507C46.1988 32.3507 46.0307 32.2965 45.9187 32.1879L41.2702 27.6827C41.0462 27.4656 41.0462 27.0856 41.2702 26.8142C41.4942 26.5971 41.8863 26.5971 42.1663 26.8142L46.8148 31.3194C47.0389 31.5365 47.0389 31.9165 46.8148 32.1879C46.7028 32.2965 46.5348 32.3507 46.3668 32.3507Z" fill="white"/>
<path d="M47.6556 28.1169C47.5436 28.1169 47.4315 28.0626 47.3195 28.0084L43.5111 25.7286C43.2311 25.5658 43.1191 25.1858 43.2871 24.9144C43.4551 24.643 43.8471 24.5345 44.1272 24.6973L47.9356 26.977C48.2156 27.1399 48.3277 27.5198 48.1596 27.7912C48.1036 28.0626 47.8796 28.1169 47.6556 28.1169Z" fill="white"/>
<path d="M42.0537 33.5449C41.8296 33.5449 41.6616 33.4363 41.5496 33.2735L39.1973 29.5825C39.0293 29.3111 39.0853 28.9311 39.4214 28.7683C39.7014 28.6054 40.0934 28.6597 40.2615 28.9854L42.6137 32.6764C42.7818 32.9478 42.7257 33.3278 42.3897 33.4906C42.2777 33.5449 42.1657 33.5449 42.0537 33.5449Z" fill="white"/>
<path d="M25.7568 52C25.5888 52 25.4208 52 25.2528 51.9457C24.3567 51.7829 23.6846 51.1315 23.4606 50.263C22.9565 48.3632 22.0604 45.4321 20.8843 42.4468C20.2682 40.9269 18.868 40.3841 17.7479 40.3841C16.6278 40.3841 15.2276 40.9269 14.6116 42.4468C13.4354 45.4321 12.5393 48.3632 12.0353 50.263C11.8112 51.0772 11.1392 51.7286 10.2431 51.9457C9.34696 52.1085 8.45085 51.8371 7.89079 51.1315C3.52229 46.0835 3.07424 40.6555 3.18625 37.833C3.18625 37.1273 2.96223 36.4217 2.51418 35.9332C1.56207 34.8476 0.833986 33.382 0.329929 31.4822C-0.734192 27.4113 0.833986 23.0689 4.19437 20.7349C5.93057 19.5407 8.0028 18.8893 10.131 18.8893C13.0434 18.8893 15.7877 20.0292 17.6919 22.0918C19.7081 20.0835 22.3964 18.9436 25.3088 18.9436C25.6448 18.9436 25.9248 19.215 25.9248 19.5407C25.9248 19.8664 25.6448 20.1378 25.3088 20.1378C22.5085 20.1378 19.9322 21.3319 18.196 23.4488L17.6919 24.0459L17.1878 23.4488C15.4517 21.3319 12.8754 20.1378 10.075 20.1378C8.17082 20.1378 6.37862 20.6806 4.86645 21.7662C1.95411 23.7745 0.553955 27.5741 1.50606 31.1566C1.95411 32.8392 2.62619 34.1962 3.41028 35.119C4.08236 35.8789 4.41839 36.8559 4.36239 37.833C4.30638 40.547 4.75443 45.6493 8.8429 50.4259C9.12293 50.7515 9.57098 50.9144 9.96303 50.8058C10.4111 50.6973 10.7471 50.4259 10.8591 49.9916C11.4192 48.0376 12.2593 45.1065 13.4914 42.0668C14.1635 40.3298 15.8437 39.2442 17.7479 39.2442C19.7081 39.2442 21.3323 40.3298 22.0044 42.0668C23.2365 45.1065 24.0766 48.0376 24.6367 49.9916C24.7487 50.4259 25.0847 50.6973 25.5328 50.8058C25.9809 50.9144 26.3729 50.7515 26.6529 50.4259C30.7414 45.6493 31.1894 40.547 31.0774 37.8873C31.0214 36.8559 31.3575 35.9332 32.0295 35.1733C33.0377 33.9791 33.6537 32.3507 33.9338 31.1566C34.0458 30.8309 34.3818 30.668 34.6618 30.7223C34.9979 30.7766 35.1659 31.1023 35.1099 31.428C34.6058 33.3278 33.8778 34.8476 32.9256 35.9332C32.4776 36.476 32.2536 37.1273 32.2536 37.833C32.4216 40.6555 31.9175 46.0835 27.605 51.1858C27.157 51.7286 26.4849 52 25.7568 52Z" fill="white"/>
<path d="M19.4837 26.6513C19.2597 26.6513 18.9797 26.4885 18.9236 26.2714C18.4196 24.8601 17.2435 23.4488 17.2435 23.4488C17.0194 23.1774 17.0754 22.7975 17.3555 22.6346C17.6355 22.4175 18.0275 22.4718 18.1956 22.7432C18.2516 22.7975 19.4837 24.3173 20.0438 25.8914C20.1558 26.2171 19.9878 26.5428 19.6517 26.6513C19.6517 26.6513 19.5957 26.6513 19.4837 26.6513Z" fill="white"/>
<path d="M39.1986 23.1775C38.6385 23.1775 38.0785 22.9603 37.6304 22.5804L32.7018 17.8038C31.8618 16.9896 31.8618 15.6326 32.7018 14.8184L37.2384 10.4217C38.0785 9.60752 39.4786 9.60752 40.3187 10.4217L45.2473 15.1983C45.6393 15.5783 45.8633 16.1211 45.8633 16.7182C45.8633 17.261 45.6393 17.8038 45.2473 18.238L40.7108 22.6347C40.3187 22.9603 39.7587 23.1775 39.1986 23.1775ZM38.8065 10.9102C38.5265 10.9102 38.3025 11.0188 38.1345 11.1816L33.598 15.5783C33.4299 15.7411 33.3179 16.0125 33.3179 16.2296C33.3179 16.501 33.4299 16.7182 33.598 16.881L38.5265 21.6576C38.8626 21.9833 39.5346 21.9833 39.8707 21.6576L44.4072 17.261C44.5752 17.0981 44.6872 16.8267 44.6872 16.6096C44.6872 16.3382 44.5752 16.1211 44.4072 15.9582L39.4786 11.1816C39.3106 11.0188 39.0866 10.9102 38.8065 10.9102Z" fill="white"/>
<path d="M44.0147 15.3069C43.8467 15.3069 43.6787 15.2526 43.5667 15.144C43.3427 14.9269 43.3427 14.547 43.5667 14.2756L54.2639 3.90814L51.9116 1.62839L41.2704 11.9958C41.0464 12.2129 40.6543 12.2129 40.3743 11.9958C40.1503 11.7787 40.1503 11.3987 40.3743 11.1273L51.9116 0L56.0001 3.96242L44.4628 15.144C44.3508 15.2526 44.1828 15.3069 44.0147 15.3069Z" fill="white"/>
<path d="M24.8043 23.8288C24.6363 23.8288 24.4122 23.7202 24.3002 23.5574C24.0762 23.286 24.1322 22.906 24.4122 22.7432L32.7572 16.8267C33.0372 16.6096 33.4293 16.6639 33.5973 16.9353C33.8213 17.2067 33.7653 17.5866 33.4853 17.7495L25.1963 23.7202C25.0843 23.8288 24.9163 23.8288 24.8043 23.8288Z" fill="white"/>
<path d="M31.9729 30.7766C31.8609 30.7766 31.6928 30.7223 31.6368 30.6681C31.3568 30.4509 31.3008 30.1253 31.5248 29.8539L37.6295 21.7662C37.8535 21.4948 38.1896 21.4405 38.4696 21.6576C38.7496 21.8747 38.8057 22.2004 38.5816 22.4718L32.4769 30.5595C32.3649 30.7223 32.1969 30.7766 31.9729 30.7766Z" fill="white"/>
<path d="M28.1647 27.5741C27.9966 27.5741 27.8286 27.5198 27.7166 27.4113C27.4926 27.1941 27.4926 26.8142 27.7166 26.5428L31.077 23.286C31.301 23.0689 31.6931 23.0689 31.9731 23.286C32.1971 23.5031 32.1971 23.8831 31.9731 24.1545L28.6127 27.4113C28.4447 27.5198 28.2767 27.5741 28.1647 27.5741Z" fill="white"/>
<path d="M26.2609 25.6743C26.0929 25.6743 25.8689 25.5657 25.7569 25.4572C25.5329 25.1858 25.5889 24.8058 25.8689 24.643L29.6773 21.8747C29.9574 21.6576 30.3494 21.7119 30.5174 21.9833C30.7415 22.2547 30.6854 22.6346 30.4054 22.7975L26.597 25.5657C26.485 25.6743 26.373 25.6743 26.2609 25.6743Z" fill="white"/>
<path d="M30.0682 29.4196C29.9562 29.4196 29.7882 29.3654 29.6762 29.3111C29.3961 29.094 29.3401 28.714 29.5641 28.4969L32.4205 24.8059C32.6445 24.5345 33.0365 24.4802 33.2606 24.6973C33.5406 24.9144 33.5966 25.2944 33.3726 25.5115L30.5162 29.2025C30.4602 29.3654 30.2922 29.4196 30.0682 29.4196Z" fill="white"/>
</svg>
