<svg width="44" height="56" viewBox="0 0 44 56" fill="none" xmlns="http://www.w3.org/2000/svg">
<path d="M0.715132 56H0.660131C0.330131 55.944 0.0551314 55.664 0.110131 55.328L1.15513 46.144C1.15513 42.448 3.41013 39.088 6.71013 37.856C9.84513 36.68 11.8251 36.232 13.1451 35.896C14.4651 35.616 14.9051 35.448 15.2901 35.056C15.7301 34.552 16.1151 33.488 16.8301 31.528L16.9951 31.08C17.1051 30.744 17.4901 30.576 17.7651 30.688C18.0951 30.8 18.2601 31.192 18.1501 31.472L17.9851 31.92C16.4451 36.176 16.3901 36.4 13.4201 37.072C12.1551 37.352 10.2301 37.8 7.15013 38.976C4.29013 40.04 2.36513 42.952 2.36513 46.144V46.2L1.32013 55.44C1.26513 55.776 1.04513 56 0.715132 56Z" fill="white"/>
<path d="M43.2845 56C42.9545 56 42.7345 55.776 42.6795 55.44L41.6345 46.144C41.6345 42.952 39.7095 40.04 36.8495 38.976C33.7695 37.8 31.8445 37.352 30.5795 37.072C27.6645 36.4 27.5545 36.12 26.0695 31.976L25.9045 31.472C25.7945 31.136 25.9595 30.8 26.2895 30.688C26.6195 30.576 26.9495 30.744 27.0595 31.08L27.2245 31.584C27.8845 33.488 28.2695 34.552 28.7095 35.056C29.0945 35.448 29.5345 35.616 30.8545 35.896C32.1745 36.176 34.1545 36.68 37.2895 37.856C40.5895 39.144 42.8445 42.448 42.8445 46.144L43.8895 55.328C43.9445 55.664 43.6695 56 43.3395 56C43.3395 56 43.3395 56 43.2845 56Z" fill="white"/>
<path d="M13.5843 23.016C13.3093 23.016 13.0893 22.848 12.9793 22.568L12.7043 21.616C12.1543 19.712 11.8243 17.864 11.8243 16.128C11.8243 15.96 11.8243 15.736 11.8243 15.568C11.7693 14.784 11.7693 13.832 11.8243 12.824V11.592C11.8243 11.256 12.0993 10.976 12.4293 10.976C12.7593 10.976 13.0343 11.256 13.0343 11.592V12.88C12.9793 13.888 12.9793 14.784 13.0343 15.568C13.0343 15.792 13.0343 15.96 13.0343 16.128C13.0893 17.808 13.3643 19.544 13.8593 21.336L14.1343 22.288C14.2443 22.624 14.0243 22.96 13.6943 23.072C13.7493 23.016 13.6943 23.016 13.5843 23.016Z" fill="white"/>
<path d="M30.4148 23.016C30.3598 23.016 30.3048 23.016 30.2498 23.016C29.9198 22.904 29.7548 22.568 29.8098 22.232L30.0848 21.28C30.5798 19.488 30.9098 17.752 30.9098 16.072C30.9098 15.904 30.9098 15.736 30.9098 15.568C30.9648 14.728 30.9648 13.832 30.9098 12.88V11.536C30.9098 11.2 31.1848 10.92 31.5148 10.92C31.8448 10.92 32.1198 11.2 32.1198 11.536V12.824C32.1748 13.776 32.1748 14.728 32.1198 15.568C32.1198 15.736 32.1198 15.904 32.1198 16.072C32.0648 17.864 31.7898 19.712 31.2398 21.56L30.9648 22.512C30.9648 22.848 30.6898 23.016 30.4148 23.016Z" fill="white"/>
<path d="M21.9998 47.544C22.4251 47.544 22.7698 47.193 22.7698 46.76C22.7698 46.327 22.4251 45.976 21.9998 45.976C21.5745 45.976 21.2298 46.327 21.2298 46.76C21.2298 47.193 21.5745 47.544 21.9998 47.544Z" fill="white"/>
<path d="M21.9998 51.744C22.4251 51.744 22.7698 51.393 22.7698 50.96C22.7698 50.527 22.4251 50.176 21.9998 50.176C21.5745 50.176 21.2298 50.527 21.2298 50.96C21.2298 51.393 21.5745 51.744 21.9998 51.744Z" fill="white"/>
<path d="M21.9998 55.944C22.4251 55.944 22.7698 55.593 22.7698 55.16C22.7698 54.727 22.4251 54.376 21.9998 54.376C21.5745 54.376 21.2298 54.727 21.2298 55.16C21.2298 55.593 21.5745 55.944 21.9998 55.944Z" fill="white"/>
<path d="M22.0005 33.264C21.0105 33.264 20.0205 33.096 19.0855 32.704L18.7555 32.592C14.6855 30.912 12.2655 26.6 13.0355 22.288L13.1455 21.616L13.7505 21.672C15.2905 21.896 16.6655 21.784 17.8205 21.504C18.5905 21.28 19.3055 20.888 20.0205 20.496C21.2855 19.768 22.8255 19.768 24.0905 20.496C24.8055 20.888 25.5205 21.336 26.2905 21.504C27.4455 21.84 28.8205 21.896 30.3605 21.672L30.9655 21.616L31.0755 22.288C31.8455 26.6 29.4255 30.912 25.3555 32.592L25.0255 32.704C23.9805 33.096 22.9905 33.264 22.0005 33.264ZM14.1355 22.96C13.7505 26.488 15.7855 30.016 19.1955 31.36L19.5255 31.472C21.1205 32.144 22.8805 32.144 24.4755 31.472L24.8055 31.36C28.1605 30.016 30.2505 26.488 29.8655 22.96C28.3805 23.072 27.0605 23.016 25.9055 22.68C25.0255 22.4 24.2005 21.952 23.4305 21.56C22.5505 21.056 21.4505 21.056 20.5705 21.56C19.8005 22.008 18.9755 22.456 18.0955 22.736C16.9405 23.016 15.6205 23.128 14.1355 22.96Z" fill="white"/>
<path d="M22.0002 39.48L15.6202 35.728C15.3452 35.56 15.2352 35.168 15.4002 34.888C15.5652 34.608 15.9502 34.496 16.2252 34.664L22.0002 38.024L27.7752 34.664C28.0502 34.496 28.4352 34.608 28.6002 34.888C28.7652 35.168 28.6552 35.56 28.3802 35.728L22.0002 39.48Z" fill="white"/>
<path d="M36.1356 51.632H29.4806C29.1506 51.632 28.8756 51.352 28.8756 51.016C28.8756 50.68 29.1506 50.4 29.4806 50.4H36.1356C36.4656 50.4 36.7406 50.68 36.7406 51.016C36.7406 51.352 36.4656 51.632 36.1356 51.632Z" fill="white"/>
<path d="M22.0001 7.95201C21.6701 7.95201 21.3951 7.67201 21.3951 7.33601V4.03202C21.3951 3.69602 21.6701 3.41602 22.0001 3.41602C22.3301 3.41602 22.6051 3.69602 22.6051 4.03202V7.33601C22.6051 7.67201 22.3301 7.95201 22.0001 7.95201Z" fill="white"/>
<path d="M23.5957 6.32798H20.4057C20.0757 6.32798 19.8007 6.04798 19.8007 5.71198C19.8007 5.37598 20.0757 5.03998 20.4057 5.03998H23.5957C23.9257 5.03998 24.2007 5.31998 24.2007 5.65598C24.2007 6.04798 23.9257 6.32798 23.5957 6.32798Z" fill="white"/>
<path d="M32.0094 10.08H11.9894V3.808C11.9894 1.736 13.6394 0 15.7294 0H28.2694C30.3044 0 32.0094 1.68 32.0094 3.808V10.08ZM13.2544 8.848H30.7444V3.808C30.7444 2.408 29.6444 1.288 28.2694 1.288H15.7294C14.3544 1.288 13.2544 2.408 13.2544 3.808V8.848Z" fill="white"/>
</svg>
